<svg width="88" height="88" viewBox="0 0 88 88" fill="none" xmlns="http://www.w3.org/2000/svg">
<g filter="url(#filter0_d_18_6)">
<circle cx="44" cy="42" r="35" fill="#E9AB13"/>
<circle cx="44" cy="42" r="37.5" stroke="#F8F8F8" stroke-width="5"/>
</g>
<g clip-path="url(#clip0_18_6)">
<path d="M46.1706 16.2686H43.4751V22.7332H46.1706V16.2686Z" fill="white"/>
<path d="M54.0885 44.124H34.0056V46.9555H54.0885V44.124Z" fill="#E4E4E4"/>
<path d="M48.0176 47.4949C48.0176 48.7278 49.0208 49.731 50.2537 49.731C51.4866 49.731 52.4898 48.7278 52.4898 47.4949C52.4898 46.262 51.4866 45.2588 50.2537 45.2588C49.0161 45.2588 48.0176 46.262 48.0176 47.4949Z" fill="#C6C6C6"/>
<path d="M35.7869 47.4851C35.7869 48.7181 36.7901 49.7213 38.023 49.7213C39.2559 49.7213 40.2591 48.7181 40.2591 47.4851C40.2591 46.2522 39.2559 45.249 38.023 45.249C36.7901 45.2537 35.7869 46.2522 35.7869 47.4851Z" fill="#C6C6C6"/>
<path d="M38.7918 41.1288C39.7154 40.4537 40.3107 40.1396 41.2061 40.1396H45.3174H49.4287C50.3287 40.1396 50.9194 40.4537 51.8429 41.1288C52.7196 41.7663 55.2604 43.5806 55.2604 43.5806H45.3127H35.365C35.3744 43.5806 37.9152 41.7663 38.7918 41.1288Z" fill="white"/>
<path d="M50.5258 41.5979C49.8929 41.1713 49.485 40.9697 48.8662 40.9697H46.4285H45.355H41.7688C41.1547 40.9697 40.7468 41.1713 40.1093 41.5979C39.5092 42.0011 38.4919 42.7699 38.4919 42.7699H44.6284H45.3175H52.1431C52.1431 42.7699 51.1258 42.0011 50.5258 41.5979Z" fill="white"/>
<path d="M50.2539 46.2012C49.5366 46.2012 48.9553 46.7825 48.9553 47.4997C48.9553 48.217 49.5366 48.7936 50.2539 48.7936C50.9711 48.7936 51.5524 48.2123 51.5524 47.4997C51.5477 46.7778 50.9711 46.2012 50.2539 46.2012Z" fill="#E4E4E4"/>
<path d="M38.0232 46.1914C37.3059 46.1914 36.7246 46.7727 36.7246 47.4853C36.7246 48.2025 37.3059 48.7838 38.0232 48.7838C38.7404 48.7838 39.3217 48.2025 39.3217 47.4853C39.3217 46.7727 38.7404 46.1914 38.0232 46.1914Z" fill="#E4E4E4"/>
<path d="M55.2651 47.4851H53.0617C53.0571 46.6506 52.6914 45.9006 52.1101 45.3896H55.2604V47.4851H55.2651Z" fill="white"/>
<path d="M33.6164 43.5801H40.8358H47.4457H55.2651V45.3896H52.1148C51.6179 44.9489 50.971 44.6864 50.2538 44.6864C49.5412 44.6864 48.8896 44.9536 48.3927 45.3896C47.8114 45.9006 47.4457 46.6506 47.441 47.4851H40.8311C40.8311 46.6506 40.4701 45.9006 39.8935 45.3896C39.3966 44.9443 38.7403 44.677 38.023 44.677C37.3058 44.677 36.6495 44.9489 36.1526 45.3896H32.7351V44.527C32.7351 44.527 32.7351 43.5801 33.6164 43.5801Z" fill="white"/>
<path d="M36.1573 45.3896C35.5807 45.9053 35.215 46.6506 35.215 47.4851H32.7351V45.3896H36.1573Z" fill="white"/>
<path d="M51.6038 27.8941C51.6038 28.6394 50.9991 29.2442 50.2537 29.2442H39.3919C38.6465 29.2442 38.0417 28.6394 38.0417 27.8941C38.0417 27.1487 38.6465 26.5439 39.3919 26.5439H50.2584C51.0038 26.5439 51.6038 27.1487 51.6038 27.8941Z" fill="white"/>
<path d="M41 30.6229C41.3094 30.9323 41.3094 31.4386 41 31.748L36.4668 36.2811C36.1574 36.5905 35.6511 36.5905 35.3417 36.2811C35.0323 35.9717 35.0323 35.4654 35.3417 35.156L39.8749 30.6229C40.1889 30.3135 40.6906 30.3135 41 30.6229Z" fill="white"/>
<path d="M48.6459 30.6229C48.9553 30.3135 49.4616 30.3135 49.771 30.6229L54.3042 35.156C54.6136 35.4654 54.6136 35.9717 54.3042 36.2811C53.9948 36.5905 53.4885 36.5905 53.1791 36.2811L48.6459 31.748C48.3365 31.4339 48.3365 30.9323 48.6459 30.6229Z" fill="white"/>
<path d="M44.7969 30.9745C45.2376 30.9745 45.5939 31.3308 45.5939 31.7714V38.1845C45.5939 38.6251 45.2376 38.9814 44.7969 38.9814C44.3563 38.9814 44 38.6251 44 38.1845V31.7714C44 31.3308 44.3563 30.9745 44.7969 30.9745Z" fill="white"/>
<path d="M41.9468 33.8856C42.139 33.8856 42.289 34.0403 42.289 34.2325V37.0124C42.289 37.2046 42.1343 37.3593 41.9421 37.3593C41.7499 37.3593 41.5952 37.2046 41.5952 37.0124V34.2325C41.5999 34.0403 41.7546 33.8856 41.9468 33.8856Z" fill="#C6C6C6"/>
<path d="M47.6707 33.8856C47.8629 33.8856 48.0129 34.0403 48.0129 34.2325V37.0124C48.0129 37.2046 47.8582 37.3593 47.666 37.3593C47.4738 37.3593 47.3191 37.2046 47.3191 37.0124V34.2325C47.3285 34.0403 47.4832 33.8856 47.6707 33.8856Z" fill="#C6C6C6"/>
<path d="M40.0718 23.7983V26.5454H44.7644V19.0494C42.1673 19.0823 40.0718 21.1918 40.0718 23.7983Z" fill="#C6C6C6"/>
<path d="M49.5789 23.7973C49.5789 21.1721 47.4506 19.0438 44.8253 19.0438C44.8066 19.0438 44.7832 19.0484 44.7644 19.0484V26.5444H49.5789V23.7973Z" fill="white"/>
<path d="M42.5093 23.4976C43.0116 23.4976 43.4188 23.0904 43.4188 22.5882C43.4188 22.0859 43.0116 21.6787 42.5093 21.6787C42.007 21.6787 41.5999 22.0859 41.5999 22.5882C41.5999 23.0904 42.007 23.4976 42.5093 23.4976Z" fill="white"/>
</g>
<path d="M22.74 62.7307C22.476 62.7307 22.272 62.6627 22.128 62.5267C21.992 62.3827 21.924 62.1787 21.924 61.9147V55.0867C21.924 54.8227 21.992 54.6227 22.128 54.4867C22.272 54.3427 22.476 54.2707 22.74 54.2707H25.62C26.212 54.2707 26.716 54.3587 27.132 54.5347C27.548 54.7107 27.864 54.9627 28.08 55.2907C28.304 55.6187 28.416 56.0107 28.416 56.4667C28.416 56.9787 28.268 57.4107 27.972 57.7627C27.676 58.1147 27.272 58.3507 26.76 58.4707V58.2907C27.352 58.3787 27.812 58.6027 28.14 58.9627C28.468 59.3227 28.632 59.7907 28.632 60.3667C28.632 61.1187 28.376 61.7027 27.864 62.1187C27.36 62.5267 26.656 62.7307 25.752 62.7307H22.74ZM23.4 61.5667H25.56C26.104 61.5667 26.504 61.4627 26.76 61.2547C27.016 61.0387 27.144 60.7187 27.144 60.2947C27.144 59.8627 27.016 59.5427 26.76 59.3347C26.504 59.1267 26.104 59.0227 25.56 59.0227H23.4V61.5667ZM23.4 57.8587H25.356C25.884 57.8587 26.276 57.7587 26.532 57.5587C26.796 57.3507 26.928 57.0467 26.928 56.6467C26.928 56.2467 26.796 55.9467 26.532 55.7467C26.276 55.5387 25.884 55.4347 25.356 55.4347H23.4V57.8587ZM32.7177 62.8507C32.1097 62.8507 31.5817 62.7267 31.1337 62.4787C30.6857 62.2307 30.3377 61.8787 30.0897 61.4227C29.8417 60.9587 29.7177 60.4147 29.7177 59.7907C29.7177 59.3187 29.7857 58.8987 29.9217 58.5307C30.0657 58.1547 30.2697 57.8347 30.5337 57.5707C30.7977 57.2987 31.1137 57.0947 31.4817 56.9587C31.8497 56.8147 32.2617 56.7427 32.7177 56.7427C33.3257 56.7427 33.8537 56.8667 34.3017 57.1147C34.7497 57.3627 35.0977 57.7147 35.3457 58.1707C35.5937 58.6267 35.7177 59.1667 35.7177 59.7907C35.7177 60.2627 35.6457 60.6867 35.5017 61.0627C35.3657 61.4387 35.1657 61.7627 34.9017 62.0347C34.6377 62.2987 34.3217 62.5027 33.9537 62.6467C33.5857 62.7827 33.1737 62.8507 32.7177 62.8507ZM32.7177 61.7107C33.0137 61.7107 33.2737 61.6387 33.4977 61.4947C33.7217 61.3507 33.8937 61.1387 34.0137 60.8587C34.1417 60.5707 34.2057 60.2147 34.2057 59.7907C34.2057 59.1507 34.0697 58.6747 33.7977 58.3627C33.5257 58.0427 33.1657 57.8827 32.7177 57.8827C32.4217 57.8827 32.1617 57.9547 31.9377 58.0987C31.7137 58.2347 31.5377 58.4467 31.4097 58.7347C31.2897 59.0147 31.2297 59.3667 31.2297 59.7907C31.2297 60.4227 31.3657 60.9027 31.6377 61.2307C31.9097 61.5507 32.2697 61.7107 32.7177 61.7107ZM39.6318 62.8507C39.0238 62.8507 38.4958 62.7267 38.0478 62.4787C37.5998 62.2307 37.2518 61.8787 37.0038 61.4227C36.7558 60.9587 36.6318 60.4147 36.6318 59.7907C36.6318 59.3187 36.6998 58.8987 36.8358 58.5307C36.9798 58.1547 37.1838 57.8347 37.4478 57.5707C37.7118 57.2987 38.0278 57.0947 38.3958 56.9587C38.7638 56.8147 39.1758 56.7427 39.6318 56.7427C40.2398 56.7427 40.7678 56.8667 41.2158 57.1147C41.6638 57.3627 42.0118 57.7147 42.2598 58.1707C42.5078 58.6267 42.6318 59.1667 42.6318 59.7907C42.6318 60.2627 42.5598 60.6867 42.4158 61.0627C42.2798 61.4387 42.0798 61.7627 41.8158 62.0347C41.5518 62.2987 41.2358 62.5027 40.8678 62.6467C40.4998 62.7827 40.0878 62.8507 39.6318 62.8507ZM39.6318 61.7107C39.9278 61.7107 40.1878 61.6387 40.4118 61.4947C40.6358 61.3507 40.8078 61.1387 40.9278 60.8587C41.0558 60.5707 41.1198 60.2147 41.1198 59.7907C41.1198 59.1507 40.9838 58.6747 40.7118 58.3627C40.4398 58.0427 40.0798 57.8827 39.6318 57.8827C39.3358 57.8827 39.0758 57.9547 38.8518 58.0987C38.6278 58.2347 38.4518 58.4467 38.3238 58.7347C38.2038 59.0147 38.1438 59.3667 38.1438 59.7907C38.1438 60.4227 38.2798 60.9027 38.5518 61.2307C38.8238 61.5507 39.1838 61.7107 39.6318 61.7107ZM44.6138 62.8267C44.3738 62.8267 44.1898 62.7627 44.0618 62.6347C43.9338 62.4987 43.8698 62.3067 43.8698 62.0587V54.9307C43.8698 54.6827 43.9338 54.4947 44.0618 54.3667C44.1898 54.2387 44.3738 54.1747 44.6138 54.1747C44.8538 54.1747 45.0378 54.2387 45.1658 54.3667C45.3018 54.4947 45.3698 54.6827 45.3698 54.9307V59.3587H45.3938L47.3738 57.2707C47.5338 57.1107 47.6738 56.9867 47.7938 56.8987C47.9138 56.8107 48.0778 56.7667 48.2858 56.7667C48.4938 56.7667 48.6498 56.8227 48.7538 56.9347C48.8658 57.0387 48.9218 57.1667 48.9218 57.3187C48.9218 57.4707 48.8498 57.6227 48.7058 57.7747L46.6178 59.9827V59.3587L48.9098 61.8307C49.0538 61.9827 49.1178 62.1387 49.1018 62.2987C49.0938 62.4507 49.0298 62.5787 48.9098 62.6827C48.7898 62.7787 48.6378 62.8267 48.4538 62.8267C48.2298 62.8267 48.0498 62.7827 47.9138 62.6947C47.7858 62.6067 47.6418 62.4747 47.4818 62.2987L45.3938 60.1147H45.3698V62.0587C45.3698 62.5707 45.1178 62.8267 44.6138 62.8267ZM51.0474 62.8147C50.8074 62.8147 50.6234 62.7427 50.4954 62.5987C50.3674 62.4547 50.3034 62.2547 50.3034 61.9987V57.5947C50.3034 57.3307 50.3674 57.1307 50.4954 56.9947C50.6234 56.8507 50.8074 56.7787 51.0474 56.7787C51.2874 56.7787 51.4714 56.8507 51.5994 56.9947C51.7354 57.1307 51.8034 57.3307 51.8034 57.5947V61.9987C51.8034 62.2547 51.7394 62.4547 51.6114 62.5987C51.4834 62.7427 51.2954 62.8147 51.0474 62.8147ZM51.0474 55.6627C50.7674 55.6627 50.5474 55.5947 50.3874 55.4587C50.2354 55.3147 50.1594 55.1187 50.1594 54.8707C50.1594 54.6147 50.2354 54.4187 50.3874 54.2827C50.5474 54.1467 50.7674 54.0787 51.0474 54.0787C51.3354 54.0787 51.5554 54.1467 51.7074 54.2827C51.8594 54.4187 51.9354 54.6147 51.9354 54.8707C51.9354 55.1187 51.8594 55.3147 51.7074 55.4587C51.5554 55.5947 51.3354 55.6627 51.0474 55.6627ZM54.106 62.8267C53.866 62.8267 53.682 62.7627 53.554 62.6347C53.426 62.4987 53.362 62.3067 53.362 62.0587V57.5227C53.362 57.2747 53.426 57.0867 53.554 56.9587C53.682 56.8307 53.862 56.7667 54.094 56.7667C54.326 56.7667 54.506 56.8307 54.634 56.9587C54.762 57.0867 54.826 57.2747 54.826 57.5227V58.3387L54.694 58.0387C54.87 57.6147 55.142 57.2947 55.51 57.0787C55.886 56.8547 56.31 56.7427 56.782 56.7427C57.254 56.7427 57.642 56.8307 57.946 57.0067C58.25 57.1827 58.478 57.4507 58.63 57.8107C58.782 58.1627 58.858 58.6107 58.858 59.1547V62.0587C58.858 62.3067 58.794 62.4987 58.666 62.6347C58.538 62.7627 58.354 62.8267 58.114 62.8267C57.874 62.8267 57.686 62.7627 57.55 62.6347C57.422 62.4987 57.358 62.3067 57.358 62.0587V59.2267C57.358 58.7707 57.27 58.4387 57.094 58.2307C56.926 58.0227 56.662 57.9187 56.302 57.9187C55.862 57.9187 55.51 58.0587 55.246 58.3387C54.99 58.6107 54.862 58.9747 54.862 59.4307V62.0587C54.862 62.5707 54.61 62.8267 54.106 62.8267ZM63.1176 65.0107C62.6856 65.0107 62.2656 64.9707 61.8576 64.8907C61.4576 64.8107 61.0936 64.6867 60.7656 64.5187C60.6136 64.4387 60.5096 64.3427 60.4536 64.2307C60.4056 64.1187 60.3896 64.0027 60.4056 63.8827C60.4296 63.7707 60.4776 63.6707 60.5496 63.5827C60.6296 63.4947 60.7256 63.4347 60.8376 63.4027C60.9496 63.3707 61.0656 63.3867 61.1856 63.4507C61.5376 63.6267 61.8696 63.7387 62.1816 63.7867C62.5016 63.8427 62.7736 63.8707 62.9976 63.8707C63.5336 63.8707 63.9336 63.7387 64.1976 63.4747C64.4696 63.2187 64.6056 62.8347 64.6056 62.3227V61.2427H64.7136C64.5936 61.6507 64.3416 61.9787 63.9576 62.2267C63.5816 62.4667 63.1536 62.5867 62.6736 62.5867C62.1456 62.5867 61.6856 62.4667 61.2936 62.2267C60.9016 61.9787 60.5976 61.6347 60.3816 61.1947C60.1656 60.7547 60.0576 60.2427 60.0576 59.6587C60.0576 59.2187 60.1176 58.8227 60.2376 58.4707C60.3656 58.1107 60.5416 57.8027 60.7656 57.5467C60.9976 57.2907 61.2736 57.0947 61.5936 56.9587C61.9216 56.8147 62.2816 56.7427 62.6736 56.7427C63.1696 56.7427 63.6016 56.8667 63.9696 57.1147C64.3456 57.3547 64.5896 57.6747 64.7016 58.0747L64.5816 58.3747V57.5227C64.5816 57.2747 64.6456 57.0867 64.7736 56.9587C64.9096 56.8307 65.0936 56.7667 65.3256 56.7667C65.5656 56.7667 65.7496 56.8307 65.8776 56.9587C66.0056 57.0867 66.0696 57.2747 66.0696 57.5227V62.1427C66.0696 63.0947 65.8176 63.8107 65.3136 64.2907C64.8096 64.7707 64.0776 65.0107 63.1176 65.0107ZM63.0816 61.4467C63.3936 61.4467 63.6616 61.3747 63.8856 61.2307C64.1096 61.0867 64.2816 60.8827 64.4016 60.6187C64.5296 60.3467 64.5936 60.0267 64.5936 59.6587C64.5936 59.1067 64.4576 58.6747 64.1856 58.3627C63.9136 58.0427 63.5456 57.8827 63.0816 57.8827C62.7696 57.8827 62.5016 57.9547 62.2776 58.0987C62.0536 58.2427 61.8776 58.4467 61.7496 58.7107C61.6296 58.9747 61.5696 59.2907 61.5696 59.6587C61.5696 60.2107 61.7056 60.6467 61.9776 60.9667C62.2496 61.2867 62.6176 61.4467 63.0816 61.4467Z" fill="#F7F8F9"/>
<defs>
<filter id="filter0_d_18_6" x="0" y="0" width="88" height="88" filterUnits="userSpaceOnUse" color-interpolation-filters="sRGB">
<feFlood flood-opacity="0" result="BackgroundImageFix"/>
<feColorMatrix in="SourceAlpha" type="matrix" values="0 0 0 0 0 0 0 0 0 0 0 0 0 0 0 0 0 0 127 0" result="hardAlpha"/>
<feOffset dy="2"/>
<feGaussianBlur stdDeviation="2"/>
<feComposite in2="hardAlpha" operator="out"/>
<feColorMatrix type="matrix" values="0 0 0 0 0 0 0 0 0 0 0 0 0 0 0 0 0 0 0.25 0"/>
<feBlend mode="normal" in2="BackgroundImageFix" result="effect1_dropShadow_18_6"/>
<feBlend mode="normal" in="SourceGraphic" in2="effect1_dropShadow_18_6" result="shape"/>
</filter>
<clipPath id="clip0_18_6">
<rect width="22.53" height="33.4622" fill="white" transform="translate(32.7351 16.2686)"/>
</clipPath>
</defs>
</svg>
