<svg width="170" height="64" viewBox="0 0 170 64" fill="none" xmlns="http://www.w3.org/2000/svg">
<g clip-path="url(#clip0_26_127)">
<mask id="mask0_26_127" style="mask-type:luminance" maskUnits="userSpaceOnUse" x="0" y="0" width="126" height="64">
<path d="M125.28 0H0V64H125.28V0Z" fill="white"/>
</mask>
<g mask="url(#mask0_26_127)">
<path d="M40.521 22.2273C43.746 24.9673 46.855 27.2543 50.199 27.2543C51.8936 27.3206 53.5818 27.0099 55.1418 26.3446C56.7018 25.6794 58.0947 24.6761 59.22 23.4073L38.468 50.9713L13.043 16.9773C16.1445 14.3849 20.0688 12.9833 24.111 13.0243C30.622 13.0243 35.701 18.1323 40.521 22.2243" fill="#007F7B"/>
<path d="M64.428 16.5725C62.8359 15.3515 60.8996 14.6633 58.894 14.6055C52.569 14.6055 48.617 20.9295 40.519 22.2275C43.745 24.9675 46.8531 27.2545 50.1971 27.2545C51.8919 27.3208 53.5804 27.01 55.1406 26.3445C56.7008 25.6791 58.0938 24.6756 59.2191 23.4065L64.428 16.5725Z" fill="#E9AB13"/>
<path d="M77.005 32.3272H74.468L71.1681 41.2322C70.9781 41.7472 70.863 42.0902 70.863 42.0902H70.825C70.825 42.0902 68.2321 35.5682 66.8961 32.3262H64.2271L68.9181 43.7872C69.1532 44.3294 69.5459 44.7884 70.0452 45.1046C70.5445 45.4207 71.1274 45.5795 71.718 45.5602L77.005 32.3272Z" fill="#77787B"/>
<path d="M101.286 45.3692V43.3092H95.4747V32.3271H93.0947V45.3692H101.286Z" fill="#77787B"/>
<path d="M111.949 45.3692V43.3092H106.436V39.5692H111.094V37.5862H106.436V34.3862H109.608C109.916 34.4244 110.229 34.4015 110.528 34.3185C110.827 34.2356 111.107 34.0943 111.351 33.9029C111.595 33.7115 111.8 33.4736 111.952 33.203C112.104 32.9324 112.201 32.6345 112.238 32.3262H104.049V45.3692H111.949Z" fill="#77787B"/>
<path d="M85.5611 39.9931H82.1481L83.8481 35.5932L83.8671 35.5162L85.5611 39.9931ZM90.3091 45.3702L85.1231 32.3271H82.8541L77.4541 45.3702H80.0021L81.3021 42.0522H86.3361L87.6361 45.3702H90.3091Z" fill="#77787B"/>
</g>
</g>
<path d="M117.692 46.096C117.444 46.096 117.252 46.028 117.116 45.892C116.988 45.748 116.924 45.552 116.924 45.304V38.236C116.924 37.98 116.988 37.784 117.116 37.648C117.252 37.512 117.444 37.444 117.692 37.444C117.94 37.444 118.128 37.512 118.256 37.648C118.392 37.784 118.46 37.98 118.46 38.236V45.304C118.46 45.552 118.396 45.748 118.268 45.892C118.14 46.028 117.948 46.096 117.692 46.096ZM120.911 46.096C120.671 46.096 120.487 46.032 120.359 45.904C120.231 45.768 120.167 45.576 120.167 45.328V40.792C120.167 40.544 120.231 40.356 120.359 40.228C120.487 40.1 120.667 40.036 120.899 40.036C121.131 40.036 121.311 40.1 121.439 40.228C121.567 40.356 121.631 40.544 121.631 40.792V41.608L121.499 41.308C121.675 40.884 121.947 40.564 122.315 40.348C122.691 40.124 123.115 40.012 123.587 40.012C124.059 40.012 124.447 40.1 124.751 40.276C125.055 40.452 125.283 40.72 125.435 41.08C125.587 41.432 125.663 41.88 125.663 42.424V45.328C125.663 45.576 125.599 45.768 125.471 45.904C125.343 46.032 125.159 46.096 124.919 46.096C124.679 46.096 124.491 46.032 124.355 45.904C124.227 45.768 124.163 45.576 124.163 45.328V42.496C124.163 42.04 124.075 41.708 123.899 41.5C123.731 41.292 123.467 41.188 123.107 41.188C122.667 41.188 122.315 41.328 122.051 41.608C121.795 41.88 121.667 42.244 121.667 42.7V45.328C121.667 45.84 121.415 46.096 120.911 46.096ZM129.442 46.12C128.93 46.12 128.478 45.996 128.086 45.748C127.702 45.5 127.402 45.148 127.186 44.692C126.97 44.228 126.862 43.684 126.862 43.06C126.862 42.428 126.97 41.888 127.186 41.44C127.402 40.984 127.702 40.632 128.086 40.384C128.478 40.136 128.93 40.012 129.442 40.012C129.93 40.012 130.354 40.132 130.714 40.372C131.082 40.612 131.33 40.928 131.458 41.32H131.326V38.2C131.326 37.952 131.39 37.764 131.518 37.636C131.646 37.508 131.83 37.444 132.07 37.444C132.31 37.444 132.494 37.508 132.622 37.636C132.758 37.764 132.826 37.952 132.826 38.2V45.328C132.826 45.576 132.762 45.768 132.634 45.904C132.506 46.032 132.322 46.096 132.082 46.096C131.842 46.096 131.658 46.032 131.53 45.904C131.402 45.768 131.338 45.576 131.338 45.328V44.392L131.47 44.752C131.35 45.168 131.106 45.5 130.738 45.748C130.37 45.996 129.938 46.12 129.442 46.12ZM129.862 44.98C130.158 44.98 130.418 44.908 130.642 44.764C130.866 44.62 131.038 44.408 131.158 44.128C131.286 43.84 131.35 43.484 131.35 43.06C131.35 42.42 131.214 41.944 130.942 41.632C130.67 41.312 130.31 41.152 129.862 41.152C129.566 41.152 129.306 41.224 129.082 41.368C128.858 41.504 128.682 41.716 128.554 42.004C128.434 42.284 128.374 42.636 128.374 43.06C128.374 43.692 128.51 44.172 128.782 44.5C129.054 44.82 129.414 44.98 129.862 44.98ZM137.058 46.12C136.45 46.12 135.922 45.996 135.474 45.748C135.026 45.5 134.678 45.148 134.43 44.692C134.182 44.228 134.058 43.684 134.058 43.06C134.058 42.588 134.126 42.168 134.262 41.8C134.406 41.424 134.61 41.104 134.874 40.84C135.138 40.568 135.454 40.364 135.822 40.228C136.19 40.084 136.602 40.012 137.058 40.012C137.666 40.012 138.194 40.136 138.642 40.384C139.09 40.632 139.438 40.984 139.686 41.44C139.934 41.896 140.058 42.436 140.058 43.06C140.058 43.532 139.986 43.956 139.842 44.332C139.706 44.708 139.506 45.032 139.242 45.304C138.978 45.568 138.662 45.772 138.294 45.916C137.926 46.052 137.514 46.12 137.058 46.12ZM137.058 44.98C137.354 44.98 137.614 44.908 137.838 44.764C138.062 44.62 138.234 44.408 138.354 44.128C138.482 43.84 138.546 43.484 138.546 43.06C138.546 42.42 138.41 41.944 138.138 41.632C137.866 41.312 137.506 41.152 137.058 41.152C136.762 41.152 136.502 41.224 136.278 41.368C136.054 41.504 135.878 41.716 135.75 42.004C135.63 42.284 135.57 42.636 135.57 43.06C135.57 43.692 135.706 44.172 135.978 44.5C136.25 44.82 136.61 44.98 137.058 44.98ZM142.04 46.096C141.8 46.096 141.616 46.032 141.488 45.904C141.36 45.768 141.296 45.576 141.296 45.328V40.792C141.296 40.544 141.36 40.356 141.488 40.228C141.616 40.1 141.796 40.036 142.028 40.036C142.26 40.036 142.44 40.1 142.568 40.228C142.696 40.356 142.76 40.544 142.76 40.792V41.608L142.628 41.308C142.804 40.884 143.076 40.564 143.444 40.348C143.82 40.124 144.244 40.012 144.716 40.012C145.188 40.012 145.576 40.1 145.88 40.276C146.184 40.452 146.412 40.72 146.564 41.08C146.716 41.432 146.792 41.88 146.792 42.424V45.328C146.792 45.576 146.728 45.768 146.6 45.904C146.472 46.032 146.288 46.096 146.048 46.096C145.808 46.096 145.62 46.032 145.484 45.904C145.356 45.768 145.292 45.576 145.292 45.328V42.496C145.292 42.04 145.204 41.708 145.028 41.5C144.86 41.292 144.596 41.188 144.236 41.188C143.796 41.188 143.444 41.328 143.18 41.608C142.924 41.88 142.796 42.244 142.796 42.7V45.328C142.796 45.84 142.544 46.096 142.04 46.096ZM151.207 46.12C150.543 46.12 149.971 45.996 149.491 45.748C149.011 45.5 148.639 45.148 148.375 44.692C148.119 44.236 147.991 43.696 147.991 43.072C147.991 42.464 148.115 41.932 148.363 41.476C148.619 41.02 148.967 40.664 149.407 40.408C149.855 40.144 150.363 40.012 150.931 40.012C151.347 40.012 151.719 40.08 152.047 40.216C152.383 40.352 152.667 40.548 152.899 40.804C153.139 41.06 153.319 41.372 153.439 41.74C153.567 42.1 153.631 42.508 153.631 42.964C153.631 43.108 153.579 43.22 153.475 43.3C153.379 43.372 153.239 43.408 153.055 43.408H149.203V42.544H152.575L152.383 42.724C152.383 42.356 152.327 42.048 152.215 41.8C152.111 41.552 151.955 41.364 151.747 41.236C151.547 41.1 151.295 41.032 150.991 41.032C150.655 41.032 150.367 41.112 150.127 41.272C149.895 41.424 149.715 41.644 149.587 41.932C149.467 42.212 149.407 42.548 149.407 42.94V43.024C149.407 43.68 149.559 44.172 149.863 44.5C150.175 44.82 150.631 44.98 151.231 44.98C151.439 44.98 151.671 44.956 151.927 44.908C152.191 44.852 152.439 44.76 152.671 44.632C152.839 44.536 152.987 44.496 153.115 44.512C153.243 44.52 153.343 44.564 153.415 44.644C153.495 44.724 153.543 44.824 153.559 44.944C153.575 45.056 153.551 45.172 153.487 45.292C153.431 45.412 153.331 45.516 153.187 45.604C152.907 45.78 152.583 45.912 152.215 46C151.855 46.08 151.519 46.12 151.207 46.12ZM156.967 46.12C156.623 46.12 156.259 46.084 155.875 46.012C155.491 45.94 155.147 45.816 154.843 45.64C154.715 45.56 154.623 45.468 154.567 45.364C154.519 45.252 154.499 45.144 154.507 45.04C154.523 44.928 154.563 44.832 154.627 44.752C154.699 44.672 154.787 44.62 154.891 44.596C155.003 44.572 155.123 44.592 155.251 44.656C155.571 44.808 155.871 44.916 156.151 44.98C156.431 45.036 156.707 45.064 156.979 45.064C157.363 45.064 157.647 45 157.831 44.872C158.023 44.736 158.119 44.56 158.119 44.344C158.119 44.16 158.055 44.02 157.927 43.924C157.807 43.82 157.623 43.744 157.375 43.696L156.175 43.468C155.679 43.372 155.299 43.192 155.035 42.928C154.779 42.656 154.651 42.308 154.651 41.884C154.651 41.5 154.755 41.168 154.963 40.888C155.179 40.608 155.475 40.392 155.851 40.24C156.227 40.088 156.659 40.012 157.147 40.012C157.499 40.012 157.827 40.052 158.131 40.132C158.443 40.204 158.743 40.32 159.031 40.48C159.151 40.544 159.231 40.628 159.271 40.732C159.319 40.836 159.331 40.944 159.307 41.056C159.283 41.16 159.235 41.256 159.163 41.344C159.091 41.424 158.999 41.476 158.887 41.5C158.783 41.516 158.663 41.492 158.527 41.428C158.279 41.3 158.039 41.208 157.807 41.152C157.583 41.096 157.367 41.068 157.159 41.068C156.767 41.068 156.475 41.136 156.283 41.272C156.099 41.408 156.007 41.588 156.007 41.812C156.007 41.98 156.063 42.12 156.175 42.232C156.287 42.344 156.459 42.42 156.691 42.46L157.891 42.688C158.411 42.784 158.803 42.96 159.067 43.216C159.339 43.472 159.475 43.816 159.475 44.248C159.475 44.832 159.247 45.292 158.791 45.628C158.335 45.956 157.727 46.12 156.967 46.12ZM161.422 46.084C161.182 46.084 160.998 46.012 160.87 45.868C160.742 45.724 160.678 45.524 160.678 45.268V40.864C160.678 40.6 160.742 40.4 160.87 40.264C160.998 40.12 161.182 40.048 161.422 40.048C161.662 40.048 161.846 40.12 161.974 40.264C162.11 40.4 162.178 40.6 162.178 40.864V45.268C162.178 45.524 162.114 45.724 161.986 45.868C161.858 46.012 161.67 46.084 161.422 46.084ZM161.422 38.932C161.142 38.932 160.922 38.864 160.762 38.728C160.61 38.584 160.534 38.388 160.534 38.14C160.534 37.884 160.61 37.688 160.762 37.552C160.922 37.416 161.142 37.348 161.422 37.348C161.71 37.348 161.93 37.416 162.082 37.552C162.234 37.688 162.31 37.884 162.31 38.14C162.31 38.388 162.234 38.584 162.082 38.728C161.93 38.864 161.71 38.932 161.422 38.932ZM165.669 46.12C165.245 46.12 164.865 46.04 164.529 45.88C164.201 45.712 163.941 45.488 163.749 45.208C163.565 44.928 163.473 44.612 163.473 44.26C163.473 43.828 163.585 43.488 163.809 43.24C164.033 42.984 164.397 42.8 164.901 42.688C165.405 42.576 166.081 42.52 166.929 42.52H167.529V43.384H166.941C166.445 43.384 166.049 43.408 165.753 43.456C165.457 43.504 165.245 43.588 165.117 43.708C164.997 43.82 164.937 43.98 164.937 44.188C164.937 44.452 165.029 44.668 165.213 44.836C165.397 45.004 165.653 45.088 165.981 45.088C166.245 45.088 166.477 45.028 166.677 44.908C166.885 44.78 167.049 44.608 167.169 44.392C167.289 44.176 167.349 43.928 167.349 43.648V42.268C167.349 41.868 167.261 41.58 167.085 41.404C166.909 41.228 166.613 41.14 166.197 41.14C165.965 41.14 165.713 41.168 165.441 41.224C165.177 41.28 164.897 41.376 164.601 41.512C164.449 41.584 164.313 41.604 164.193 41.572C164.081 41.54 163.993 41.476 163.929 41.38C163.865 41.276 163.833 41.164 163.833 41.044C163.833 40.924 163.865 40.808 163.929 40.696C163.993 40.576 164.101 40.488 164.253 40.432C164.621 40.28 164.973 40.172 165.309 40.108C165.653 40.044 165.965 40.012 166.245 40.012C166.821 40.012 167.293 40.1 167.661 40.276C168.037 40.452 168.317 40.72 168.501 41.08C168.685 41.432 168.777 41.888 168.777 42.448V45.328C168.777 45.576 168.717 45.768 168.597 45.904C168.477 46.032 168.305 46.096 168.081 46.096C167.857 46.096 167.681 46.032 167.553 45.904C167.433 45.768 167.373 45.576 167.373 45.328V44.752H167.469C167.413 45.032 167.301 45.276 167.133 45.484C166.973 45.684 166.769 45.84 166.521 45.952C166.273 46.064 165.989 46.12 165.669 46.12Z" fill="#77787B"/>
<defs>
<clipPath id="clip0_26_127">
<rect width="125.28" height="64" fill="white"/>
</clipPath>
</defs>
</svg>
